<svg xmlns="http://www.w3.org/2000/svg" width="596" height="480" viewBox="0 0 596 480">
    <defs>
        <linearGradient id="a" x1="50.014%" x2="50.014%" y1="99.996%" y2="0%">
            <stop offset="0%" stop-color="gray" stop-opacity=".25"/>
            <stop offset="54%" stop-color="gray" stop-opacity=".12"/>
            <stop offset="100%" stop-color="gray" stop-opacity=".1"/>
        </linearGradient>
    </defs>
    <g fill="none" fill-rule="evenodd">
        <path fill="#000" fill-rule="nonzero" d="M346.262 55.358c-38.208-1.1-74.595-11.38-109.319-22.628C202.22 21.482 167.75 9.04 130.458 3.083 106.474-.75 79.046-1.291 59.72 9.42c-18.6 10.31-24.606 28.109-27.836 44.63-2.436 12.423-3.864 25.503 2.798 37.132 4.607 8.067 12.836 14.86 18.514 22.594 19.751 26.915 5.793 60.1-15.617 86.377-10.043 12.325-21.692 24.086-29.443 37.207-7.751 13.12-11.321 28.166-4.555 41.535 6.72 13.253 22.734 23.227 40.084 30.24 35.236 14.233 76.76 18.307 117.248 20.618 89.625 5.105 179.733 2.88 269.6.68 33.255-.819 66.66-1.648 99.379-5.936 18.168-2.38 36.923-6.154 50.098-15.27 16.746-11.57 20.892-31.168 9.675-45.677-18.819-24.34-70.83-30.385-84.01-56.506-7.245-14.377.195-30.396 10.716-43.73 22.573-28.604 60.412-53.699 62.404-86.394 1.365-22.473-16.82-44.946-44.944-55.572-29.478-11.138-70.357-9.738-92.136 8.701-22.348 18.981-61.701 26.305-95.434 25.308z" opacity=".1"/>
        <ellipse cx="250.752" cy="462.88" fill="#64B5F6" fill-rule="nonzero" opacity=".1" rx="167.427" ry="16.895"/>
        <path stroke="#535461" stroke-width="1.6" d="M97.589 461.048s-7.429-42.117-35-62.988c-11.57-8.759-20.034-20.67-23.731-34.234a103.352 103.352 0 0 1-3.328-19.65"/>
        <path fill="#64B5F6" fill-rule="nonzero" d="M18.243 330.923c2.303 4.512 17.696 13.646 17.696 13.646s1.934-17.063-.386-21.58c-2.321-4.518-8.062-6.402-12.853-4.213-4.791 2.19-6.778 7.63-4.457 12.147zM16.774 362.495c4.55 2.599 22.712 2.368 22.712 2.368s-8.195-15.316-12.726-17.915c-4.532-2.598-10.458-1.227-13.21 3.066-2.753 4.293-1.319 9.882 3.224 12.481zM39.353 404.975c5.31.075 20.863-8.788 20.863-8.788s-15.254-9.312-20.569-9.392c-5.315-.081-9.686 3.93-9.79 8.949-.103 5.019 4.181 9.139 9.496 9.23zM64.092 433.458c5.217.928 22.135-5.33 22.135-5.33s-13.371-11.629-18.582-12.539c-5.212-.91-10.25 2.305-11.23 7.26-.978 4.956 2.454 9.687 7.677 10.609zM58.109 357.407c-1.814 4.72-16.124 15.299-16.124 15.299s-3.79-16.78-1.975-21.5c1.814-4.719 7.336-7.156 12.329-5.445 4.992 1.712 7.583 6.932 5.77 11.646zM86.596 391.082c-3.225 3.993-20.224 10.044-20.224 10.044s1.727-17.086 4.93-21.073a10.004 10.004 0 0 1 13.485-1.729 8.76 8.76 0 0 1 1.809 12.758zM109.526 427.402c-2.465 4.448-18.134 13.126-18.134 13.126s-1.376-17.108 1.089-21.557c2.464-4.448 8.275-6.165 12.985-3.837 4.71 2.328 6.519 7.82 4.06 12.268z"/>
        <path fill="#000" fill-rule="nonzero" d="M18.243 330.923c2.303 4.512 17.696 13.646 17.696 13.646s1.934-17.063-.386-21.58c-2.321-4.518-8.062-6.402-12.853-4.213-4.791 2.19-6.778 7.63-4.457 12.147zM16.774 362.495c4.55 2.599 22.712 2.368 22.712 2.368s-8.195-15.316-12.726-17.915c-4.532-2.598-10.458-1.227-13.21 3.066-2.753 4.293-1.319 9.882 3.224 12.481zM39.353 404.975c5.31.075 20.863-8.788 20.863-8.788s-15.254-9.312-20.569-9.392c-5.315-.081-9.686 3.93-9.79 8.949-.103 5.019 4.181 9.139 9.496 9.23zM64.092 433.458c5.217.928 22.135-5.33 22.135-5.33s-13.371-11.629-18.582-12.539c-5.212-.91-10.25 2.305-11.23 7.26-.978 4.956 2.454 9.687 7.677 10.609zM58.109 357.407c-1.814 4.72-16.124 15.299-16.124 15.299s-3.79-16.78-1.975-21.5c1.814-4.719 7.336-7.156 12.329-5.445 4.992 1.712 7.583 6.932 5.77 11.646zM86.596 391.082c-3.225 3.993-20.224 10.044-20.224 10.044s1.727-17.086 4.93-21.073a10.004 10.004 0 0 1 13.485-1.729 8.76 8.76 0 0 1 1.809 12.758zM109.526 427.402c-2.465 4.448-18.134 13.126-18.134 13.126s-1.376-17.108 1.089-21.557c2.464-4.448 8.275-6.165 12.985-3.837 4.71 2.328 6.519 7.82 4.06 12.268z" opacity=".25"/>
        <path stroke="#535461" stroke-width="1.6" d="M96.656 459.941s11.269-41.35-4.981-70.991c-6.818-12.435-9.45-26.564-7.008-40.382a103.775 103.775 0 0 1 5.384-19.235"/>
        <path fill="#64B5F6" fill-rule="nonzero" d="M79.927 310.6c.185 5.013 10.325 19.252 10.325 19.252s9.087-14.861 8.903-19.88c-.184-5.02-4.636-8.943-9.945-8.77-5.31.172-9.473 4.379-9.283 9.398zM65.047 338.904c3.041 4.114 19.74 10.856 19.74 10.856s-.92-17.137-3.961-21.257a9.986 9.986 0 0 0-13.395-2.253 8.776 8.776 0 0 0-2.384 12.654zM67.466 386.368c4.826 2.104 22.85-.04 22.85-.04s-9.957-14.36-14.782-16.463c-4.826-2.103-10.538-.115-12.767 4.443-2.228 4.558-.12 9.957 4.699 12.06zM77.86 421.893c4.382 2.846 22.527 3.601 22.527 3.601s-7.244-15.736-11.62-18.577a9.975 9.975 0 0 0-13.377 2.305 8.78 8.78 0 0 0 2.47 12.67zM105.017 350.077c-3.685 3.619-21.306 7.82-21.306 7.82s3.737-16.797 7.417-20.416a10.026 10.026 0 0 1 13.607-.254 8.738 8.738 0 0 1 .282 12.85zM116.591 391.768c-4.658 2.414-22.792 1.44-22.792 1.44s8.886-14.982 13.544-17.379c4.659-2.397 10.51-.8 13.06 3.601 2.552 4.403.87 9.923-3.812 12.338zM121.999 433.752c-4.164 3.123-22.21 5.059-22.21 5.059s6.08-16.175 10.244-19.298a10.003 10.003 0 0 1 13.515 1.47 8.757 8.757 0 0 1-1.55 12.769z"/>
        <path fill="url(#a)" fill-rule="nonzero" d="M571.36 218.484c.345-.945-2.246-6.183-2.246-6.443 0-.259-2.678-3.18-2.678-4.811 0-1.631-3.547-5.152-3.547-5.152s-4.75-1.976-5.27-6.27c-.517-4.292-5.694-4.384-5.706-4.384 0 0 0-.392.035-.986 0-1.336-.04-3.722-.64-5.024a5.097 5.097 0 0 0-2.942-2.495s-.518-3.348-1.555-4.38a4.935 4.935 0 0 1-1.215-4.633c.519-1.63-.69-5.762-3.201-6.338-2.511-.576-5.356-1.544-5.356-1.544s-.282.051-.69.109l-.346-.11c-.602.111-1.21.187-1.82.225a2.216 2.216 0 0 1-1.463-.484c-.87-.945-7.871-2.748-9.167-2.748-1.296 0-5.016-1.73-5.016-1.73l-3.708-2.834c-1.042-.795-2.972-4.034-3.254-4.489l-.034-.063a15.565 15.565 0 0 1-.783-2.26 20.421 20.421 0 0 0 3.213-4.419c.092-.167.173-.34.253-.507.196-.003.39-.034.576-.092.075 0 .15-.058.225-.087a3.774 3.774 0 0 0 1.837-2.195c.063-.184.12-.375.167-.576 0-.064 0-.133.04-.196.04-.064.057-.26.08-.392.024-.133.03-.15.04-.219.012-.07.041-.26.058-.392.018-.132 0-.144 0-.213 0-.167.04-.328.064-.49.058-.61.148-1.215.27-1.815.519-2.305 1.918-4.299 2.914-6.454a12.302 12.302 0 0 0 .737-1.982l.087-.323a16.7 16.7 0 0 0 .172-.772c0-.115.046-.23.064-.346.057-.357.11-.714.138-1.077a13.365 13.365 0 0 0-.858-6.056c-.65-1.614-1.612-3.066-2.269-4.68-.996-2.442-1.255-5.185-2.47-7.536-2.033-3.907-6.824-5.86-10.763-4.391-1.883.697-3.513 2.057-5.419 2.668-2.556.812-5.286.201-7.929-.167-2.643-.37-5.568-.398-7.693 1.33-2.448 1.989-3.121 5.728-5.419 7.912-.962.917-2.165 1.504-3.184 2.351a5.186 5.186 0 0 0-1.595 2.184c0 .064-.04.121-.058.185-.017.063-.04.144-.058.219a3.007 3.007 0 0 0-.046.259c-.011.086 0 .121 0 .179a3.073 3.073 0 0 0 0 .46c.017.146.042.29.075.433v.12c0 .041.07.237.11.358a.323.323 0 0 0 0 .07c.046.132.097.258.15.391l.086.196.069.161c.337.634.606 1.303.8 1.994.108.437.082.897-.075 1.32a4.033 4.033 0 0 1-.961 1.256 17.865 17.865 0 0 0-3.899 6.252c-.098.265-.196.53-.282.807l.121.028c.247.076.499.132.754.168.144 0 .288.034.438.046a6.762 6.762 0 0 0 1.762-.139c.144-.029.294-.063.438-.103.593-.164 1.17-.378 1.727-.64V137.546a20.44 20.44 0 0 0 11.339 18.272c0 .185.051.375.074.577.024.201.04.31.058.466l-.23-.224s-1.56-.772-3.03 1.458c-1.468 2.23-4.232 3.267-4.232 3.267s-15.732 2.49-16.336 4.552l-7.348.426s-2.597.346-2.88 5.763c-.282 5.416-1.64 5.93-1.64 5.93s-3.024 5.324-2.765 8.066c.26 2.743-2.303 4.126-2.303 4.126l-.346 4.892s-2.879-.426-3.633 2.922c-.754 3.348-2.16 4.898-2.16 4.898s-4.756 3.953-5.015 7.3l-2.937 1.804s-6.83-1.544-8.384-4.293l-.478-.45a.432.432 0 0 1-.04-.068.162.162 0 0 0 0 .034c-1.026-.968-3.19-2.985-2.88-2.524.202.432.25.92.138 1.383l-.506-.576-1.36-1.51s-11.038-10.372-17.522-11.167c-.087-.167-.501-1.798-1.607-.778a9.02 9.02 0 0 0-.063 13.253l10.336 9.664.265.196 2.223 2.881a34.606 34.606 0 0 0-.95 2.564s0 .052-.03.075c-.05.173-.109.334-.16.496l-.052.173c-.046.16-.098.322-.144.472-.046.15-.052.19-.08.282-.03.093 0 .11-.047.162a36.349 36.349 0 0 0-.484 1.896l-.575-.18.575.243v.092l-.034.179.53.23c3.029 1.32 18.145 7.952 18.922 8.96.864 1.113 6.565 4.38 11.753 1.631 5.188-2.748 6.334-6.96 6.334-6.96s5.01-6.956 5.183-7.987c.173-1.032 4.065-2.236 4.065-2.236s.346 11.525-1.64 15.72c-1.987 4.195-5.707 22.853-5.707 22.853a2.74 2.74 0 0 1 .737-.046c-.139.674-.22 1.077-.22 1.077.304-.054.614-.054.916 0-.276 2.121-1.865 11.963-1.865 11.963s-.519 4.466-1.382 6.01c-.864 1.544-.95 9.623-.95 9.623l-1.383 5.837c.158.345.333.682.525 1.009 0 0 1.485 3.296 3.979 5.146a10.55 10.55 0 0 1-.697 2.673 9.266 9.266 0 0 0-.691 4.12s-1.469 6.615-1.296 8.505c.173 1.89-.95 6.53-.95 6.53l-1.607 14.9s-1.036 12.971-.518 16.498c.518 3.526-.351 8.326-.351 8.326s1.036 10.223.777 11.34c-.259 1.119-1.555 5.924-.777 8.592.777 2.668.351 9.963.351 9.963s.518 9.618 1.117 12.712c.6 3.094-.172 7.047-.172 7.047s-.576 6.61-.864 6.61c-.288 0-2.505 4.552 2.073 9.023 4.578 4.472 1.727 3.775 1.727 3.775s-3.627-1.804-3.201 1.89c.414 3.515.984 2.599 1.036 2.5l-.864 2.824.576.087-.5.576a13.416 13.416 0 0 1-1.728 1.81c-1.043.771-1.152 2.488-1.152 2.488s-6.392 6.961-12.358 10.482c-3.138 1.856-5.844 3.423-7.025 4.72-1.065 1.152-.892 2.108 1.319 2.84 4.67 1.544 12.876 2.305 18.755.346a21.915 21.915 0 0 0 9.162-5.93s3.72-1.89 7.353-1.204c3.634.686 10.89-4.033 10.89-4.033l-.133-1.222-.386-3.51a2.761 2.761 0 0 1-.604-2.143 11.134 11.134 0 0 0-.306-3.088c-.057-.34-.126-.68-.19-.997l.663-.121s-.858-4.385.696-5.244c1.555-.859 1.118-12.1 1.118-12.1s-1.981-2.577-3.024-3.003c-1.042-.426-.086-5.762.092-6.448.179-.686 1.555-14.002 1.555-14.002s-.518-4.207.173-6.01c.691-1.804-.83-8.719-.83-8.719s-.517-.858.438-1.89c.956-1.031.576-10.222.576-10.222s-.08-4.639-.08-5.843c0-1.205 1.036-5.584 1.986-7.042.95-1.458.346-6.016.346-6.016l.052-.34c0-.132.046-.293.08-.49l.075-.455a64.92 64.92 0 0 1 1.71-7.496c1.152-3.608 2.419-9.963 2.419-9.963l8.062-20.975.092-.248s3.714 6.874 3.714 13.253c0 0 .95 7.647.691 9.71-.259 2.063.766 11.715.766 11.715s1.123 13.916 1.123 14.52c0 .606 1.382 11.34 2.251 12.972.87 1.63-.869 6.615-1.387 7.128-.519.512.172 13.143.172 13.143s-1.295 9.963-1.554 12.026c-.26 2.063-1.296 9.97-.432 13.058.864 3.088.518 3.52.518 3.52s3.115 3.181 1.296 3.458a4.751 4.751 0 0 0-3.455 6.263 80.27 80.27 0 0 0 3.806 9.22s.536-.12 1.428-.3v1.02l.104 5.117s.576 4.898.259 6.016c-.254.818-.576 4.668-.766 6.679-.063.731-.098 1.221-.098 1.221s0 4.553 9.594 3.181c9.593-1.371 11.32-5.151 11.32-5.151s0-.179.07-.473c.144-.87.455-2.714.708-3.74.346-1.377-2.764-7.56-2.764-7.56s-.518-4.206-1.388-5.151a4.566 4.566 0 0 1-.69-1.804c-.081-.346-.15-.709-.208-1.06.215.027.428.066.64.115 0 0-.52-3.008 1.473-3.953 1.993-.945 1.469-2.916 1.21-3.78-.26-.864.777-5.67.777-5.67a2.796 2.796 0 0 1 .691-2.743c1.215-1.21 2.16-9.623 2.16-9.623l.172-32.47s.61-5.763-.08-8.068c-.691-2.305-1.388-6.782-.438-7.986.95-1.205.086-6.783.086-6.783s0-11.772 1.302-14.688c1.301-2.915.864-21.39.864-21.39l.34-12.1s2.827-2.674 2.159-16.613c3.011-.19 6.409-.3 6.91.115.95.778 7.088 4.725 10.716 2.236.778-.346 4.32-3.348 4.32-3.348l-1.521-25.757a73.046 73.046 0 0 1 1.526 2.391c0-3.607 10.198-15.293 10.198-15.293s9.507-12.28 11.58-13.743c2.073-1.464 6.139-9.191 6.139-9.191a37.264 37.264 0 0 1 2.079-4.293c.984-1.585-2.13-5.71-1.785-6.655zm-22.309 9.012c-2.591.26-8.062 6.189-8.125 7.49-.04.68-.616 1.591-1.152 2.306-.04-.519-.086-1.049-.126-1.585-.61-7.589-1.273-16.837-.973-17.736.524-1.545.345-8.5.345-8.5l.092-.132c1.728 5.388 7.158 11.743 7.158 11.743s.95 2.749 2.073 2.835c1.123.087.708 3.579.708 3.579z"/>
        <path fill="#65617D" fill-rule="nonzero" d="M410.468 225.542s3.15-16.537 13.29-16.624l7.412 15.259-4.94 3.411s-10.735.34-15.762-2.046z"/>
        <path fill="#000" fill-rule="nonzero" d="M431.17 224.177l-4.94 3.411s-7.556.242-12.957-1.09a15.495 15.495 0 0 1-2.805-.956s0-.092.058-.265v-.063a37.335 37.335 0 0 1 1.918-6.074c.316-.743.667-1.51 1.048-2.276 1.485-2.88 3.57-5.658 6.426-7.047a8.731 8.731 0 0 1 3.38-.882H423.748l.16.34 2.506 5.152 4.756 9.75z" opacity=".1"/>
        <path fill="#65617D" fill-rule="nonzero" d="M515.336 292.886s10.653-1.02 11.586-.253c.932.766 6.985 4.685 10.566 2.213 3.582-2.472 1.192-11.081 1.192-11.421 0-.34-.34-12.533-.34-12.533l-6.391-8.61-8.005-15.085-16.354-1.625.427 23.96-.087 12.274 7.406 11.08z"/>
        <path fill="#000" fill-rule="nonzero" d="M515.336 292.886s10.653-1.02 11.586-.253c.932.766 6.985 4.685 10.566 2.213 3.582-2.472 1.192-11.081 1.192-11.421 0-.34-.34-12.533-.34-12.533l-6.391-8.61-8.005-15.085-16.354-1.625.427 23.96-.087 12.274 7.406 11.08z" opacity=".1"/>
        <path fill="#FBBEBE" fill-rule="nonzero" d="M421.628 208.48s-.852 10.401-7.325 10.568c0 0-1.836-1.106-4.307-2.95-5.69-4.258-14.713-12.447-12.22-20.064 3.577-10.908 20.956 9.22 20.956 9.22l1.33 1.498 1.566 1.728z"/>
        <path fill="#000" fill-rule="nonzero" d="M421.628 208.48s-.852 10.401-7.325 10.568c0 0-1.836-1.106-4.307-2.95l-.547-.709c1.099.573 2.31.9 3.547.957a4.797 4.797 0 0 0 4.607-2.922 36.61 36.61 0 0 0 1.791-4.126c.315-.822.54-1.676.668-2.546l1.566 1.728z" opacity=".1"/>
        <path fill="#E7EFFD" fill-rule="nonzero" d="M418.818 227.334l-1.457-1.878-4.906-6.339-2.5-3.232a8.415 8.415 0 0 0 3.548.956c1.63.04 3.455-.576 4.607-2.915a37.25 37.25 0 0 0 1.79-4.132c.807-2.305.795-3.457.507-3.878-.287-.42 1.809 1.544 2.816 2.5l.035.035.472.444.173.346 2.47 4.938v.208c.242 1.584 1.077 11.536-7.555 12.947z"/>
        <path fill="#65617D" fill-rule="nonzero" d="M469.85 446.757s-7.158 4.69-10.734 4.034c-3.576-.657-7.244 1.198-7.244 1.198a21.581 21.581 0 0 1-9.035 5.884c-5.759 1.959-13.878 1.187-18.48-.346-2.176-.726-2.354-1.66-1.306-2.818 1.151-1.29 3.835-2.84 6.91-4.685 5.88-3.491 12.179-10.372 12.179-10.372s.086-1.728 1.111-2.466c.631-.544 1.21-1.146 1.728-1.798a62.469 62.469 0 0 0 1.773-2.212l21.053.61s.357 1.516.64 3.066c.24 1.005.339 2.039.293 3.071-.109.758.1 1.527.576 2.126l.38 3.458.156 1.25zM513.89 452.64c-.253 1.02-.576 2.847-.697 3.706l-.074.472s-1.728 3.752-11.155 5.117c-9.426 1.366-9.455-3.158-9.455-3.158s.035-.484.092-1.215c.167-1.994.507-5.815.76-6.627.334-1.106-.259-5.97-.259-5.97l-.098-5.076-.075-3.527 15.68-1.625c.097 1.173.267 2.34.507 3.492.096.64.33 1.252.686 1.792.852.94 1.359 5.117 1.359 5.117s3.069 6.137 2.73 7.503z"/>
        <path fill="#000" fill-rule="nonzero" d="M467.805 433.786s.357 1.516.64 3.066c-2.275.42-12.214 2.143-14.696.94-2.816-1.367-8.862-2.133-8.862-2.133l.098-.346c.915-1.083 1.773-2.212 1.773-2.212l21.047.685zM509.116 438.23c-3.973-.675-12.668.956-16.123 1.659l-.075-3.527 15.68-1.625c.1 1.174.274 2.34.518 3.492z" opacity=".1"/>
        <path fill="#3F3D56" fill-rule="nonzero" d="M517.956 308.998l-.34 12.02s.426 18.33-.852 21.228c-1.279 2.899-1.279 14.579-1.279 14.579s.853 5.538-.086 6.73c-.939 1.193-.253 5.624.426 7.93.68 2.304.086 8.015.086 8.015l-.172 32.222s-.933 8.35-2.131 9.549c-.7.72-.959 1.76-.68 2.725 0 0-1.019 4.771-.765 5.63.253.859.766 2.812-1.192 3.745-1.958.934-1.451 3.925-1.451 3.925-4.682-1.113-17.973 1.878-17.973 1.878a80.034 80.034 0 0 1-3.748-9.127 4.722 4.722 0 0 1 3.409-6.218c1.785-.26-1.279-3.411-1.279-3.411s.34-.427-.512-3.492c-.852-3.066.167-10.949.426-12.965l1.532-11.934s-.68-12.527-.167-13.04c.512-.513 2.21-5.457 1.364-7.076-.846-1.62-2.222-12.274-2.222-12.873 0-.6-1.1-14.406-1.1-14.406s-1.025-9.635-.766-11.68c.259-2.046-.685-9.63-.685-9.63 0-6.338-3.663-13.131-3.663-13.131l-.092.247-7.895 20.814s-1.278 6.304-2.384 9.882a64.679 64.679 0 0 0-1.664 7.405l-.075.455c0 .19-.057.351-.075.478l-.051.346s.575 4.518-.346 5.97c-.921 1.452-1.958 5.797-1.958 6.99 0 1.192.087 5.796.087 5.796s.34 9.122-.576 10.148c-.916 1.025-.432 1.872-.432 1.872s1.532 6.915.852 8.696c-.68 1.78-.167 5.964-.167 5.964s-1.365 13.219-1.532 13.898c-.167.68-1.111 5.97-.086 6.397 1.025.426 2.977 2.979 2.977 2.979s.432 11.173-1.106 12.02c-1.537.847-.685 5.186-.685 5.186s-12.346 2.386-15.156 1.02c-2.81-1.366-8.862-2.132-8.862-2.132l.846-2.8c-.052.097-.616 1.008-1.02-2.484-.42-3.665 3.157-1.879 3.157-1.879s2.81.686-1.728-3.745-2.303-8.955-2.044-8.955c.259 0 .858-6.557.858-6.557s.766-3.924.167-6.996c-.6-3.071-1.106-12.62-1.106-12.62s.426-7.242-.34-9.882c-.765-2.639.507-7.421.766-8.528.26-1.106-.794-11.225-.794-11.225s.852-4.77.34-8.263c-.513-3.492.512-16.37.512-16.37l1.532-14.833s1.105-4.61.938-6.482c-.167-1.873 1.284-8.436 1.284-8.436a9.225 9.225 0 0 1 .68-4.092c.852-1.728 1.192-7.33 1.192-7.33l8.183-18.756 4.03-16.537 54.09-.513s.201 1.435.53 4.033c.328 2.6.788 6.46 1.3 11.225.473 4.328.991 9.416 1.492 15.08 1.636 18.082-1.82 21.32-1.82 21.32z"/>
        <path fill="#FBBEBE" fill-rule="nonzero" d="M512.952 159.731l-12.611 13.472s-16.182-6.482-14.477-8.695c.656-.859.576-3.567.173-6.552-.576-4.725-1.878-10.159-1.878-10.159s28.28-4.61 25.913.167c-.87 1.73-.72 3.78-.178 5.665a21.326 21.326 0 0 0 3.058 6.102z"/>
        <path fill="#000" fill-rule="nonzero" d="M510.055 147.976c-.87 1.729-1.284 1.913-.743 3.797-3.697 3.96-8.401 8.304-14.252 8.304-3.131.005-6.22-.72-9.023-2.115-.576-4.725-1.878-10.159-1.878-10.159s28.28-4.61 25.896.173z" opacity=".1"/>
        <path fill="#FBBEBE" fill-rule="nonzero" d="M515.341 139.27c-.186 11.073-9.21 19.952-20.278 19.952-11.068 0-20.092-8.88-20.278-19.953v-.288c.079-11.205 9.221-20.225 20.419-20.145 11.198.08 20.211 9.228 20.132 20.433h.005z"/>
        <path fill="#000" fill-rule="nonzero" d="M518.272 273.122c-2.683 0-11.626.098-21.623.253h-.12l-3.3.058h-.104c-11.85.19-23.535-2.126-28.216-1.688-9.962.933 3.582-9.22 3.582-9.22a83.317 83.317 0 0 0 22.705 2.305l2.88-.15c9.052-.513 18.156-1.366 22.912-2.795.317 2.64.772 6.471 1.284 11.237z" opacity=".1"/>
        <path fill="#5F5D7E" fill-rule="nonzero" d="M518.272 272.609c-2.683 0-11.626.098-21.623.253h-.12l-3.3.058h-.104c-11.85.19-23.535-2.126-28.216-1.688-9.962.939 3.582-9.22 3.582-9.22a83.317 83.317 0 0 0 22.705 2.305l2.88-.15c9.052-.513 18.156-1.366 22.912-2.789.317 2.64.772 6.454 1.284 11.23z"/>
        <path fill="#000" fill-rule="nonzero" d="M489.613 165.355l-15.675 7.336-12.093 93.597s7.152-3.239 11.247-1.193c4.094 2.045 16.7.173 16.7.173s9.213-.513 10.566.513c1.353 1.025 17.367-4.288 17.367-4.288s2.88-6.476.68-7.49c-2.2-1.015.702-11.07.702-11.07l-1.382-67.517-2.73-8.695-7.324-4.431-7.486 5.964-3.576.512-6.996-3.41z" opacity=".1"/>
        <path fill="#E7EFFD" fill-rule="nonzero" d="M489.613 164.335l-15.675 7.33-12.093 93.603s7.152-3.239 11.247-1.193c4.094 2.046 16.7.167 16.7.167s9.213-.507 10.566.513c1.353 1.02 17.379-4.264 17.379-4.264s2.88-6.477.68-7.491c-2.2-1.014.69-11.098.69-11.098l-1.382-67.512-2.73-8.69-7.324-4.436-7.486 5.97-3.576.512-6.996-3.41z"/>
        <path fill="#000" fill-rule="nonzero" d="M489.353 168.68s4.515 5.37 4.434 6.483c-.08 1.112-.259 3.75-.259 3.75l-3.409 6.916s-1.871 8.608-1.871 10.4c0 1.793-2.983 17.287-2.983 17.287l-3.588 23.874-4.514 31.289 4.607 7.923 5.447-4.61 7.244-55.756 1.532-10.994s1.618-19.776 1.618-21.822c0-2.046-.933-7.416-.933-7.416s1.106-5.117 5.707-6.339c4.6-1.221-.34-.259-.34-.259l-2.643-2.126-2.303.933s-6.38-1.919-7.746.467z" opacity=".1"/>
        <path fill="#64B5F6" fill-rule="nonzero" d="M488.84 168.173s4.521 5.37 4.435 6.477c-.086 1.106-.26 3.751-.26 3.751l-3.402 6.915s-1.878 8.609-1.878 10.4c0 1.793-2.983 17.288-2.983 17.288l-3.576 23.867-4.514 31.29 4.607 7.928 5.453-4.61 7.238-55.75 1.538-10.989s1.618-19.776 1.618-21.821c0-2.046-.933-7.416-.933-7.416s1.106-5.117 5.707-6.31c4.6-1.193-.34-.254-.34-.254l-2.643-2.132-2.304.94s-6.397-1.965-7.762.426z"/>
        <path fill="#000" fill-rule="nonzero" d="M485.864 159.218s-.685.513-.852 3.924c-.167 3.412-2.557 11.081-2.557 11.081s8.862-6.137 13.29-5.457l-9.881-9.548z" opacity=".1"/>
        <path fill="#E7EFFD" fill-rule="nonzero" d="M485.864 158.198s-.685.507-.852 3.919c-.167 3.411-2.557 11.08-2.557 11.08s8.862-6.136 13.29-5.45l-9.881-9.549z"/>
        <path fill="#000" fill-rule="nonzero" d="M510.055 156.493l-13.981 12.273s11.758 6.99 13.29 8.696c1.532 1.705 3.064-16.711 3.064-16.711l-2.373-4.258z" opacity=".1"/>
        <path fill="#E7EFFD" fill-rule="nonzero" d="M510.568 155.467l-13.97 12.28s11.753 6.99 13.296 8.695c1.543 1.705 3.063-16.71 3.063-16.71l-2.39-4.265z"/>
        <path fill="#000" fill-rule="nonzero" d="M486.37 159.218s-1.531-.766-2.977 1.452a9.675 9.675 0 0 1-4.174 3.239s-15.508 2.472-16.124 4.517l-7.244.427s-2.557.34-2.81 5.71c-.254 5.37-1.619 5.884-1.619 5.884s-2.982 5.284-2.723 8.01c.259 2.725-2.304 4.096-2.304 4.096l10.648 27.705s.345 11.421-1.618 15.599c-1.964 4.178-5.62 22.675-5.62 22.675s1.531-.34 1.445.68c-.087 1.02-1.82 12.193-1.82 12.193s-.512 4.43-1.365 5.97c-.852 1.538-.938 9.542-.938 9.542l-1.36 5.797s3.237 7.249 8.178 6.223c4.94-1.026 13.883-20.37 13.883-20.37l5.713-20.888 4.428-20.63 1.278-13.979 2.045-30.943 2.982-20.462s3.294-11.012 2.097-12.447z" opacity=".1"/>
        <path fill="#65617D" fill-rule="nonzero" d="M485.864 158.198s-1.538-.766-2.983 1.447a9.623 9.623 0 0 1-4.175 3.238s-15.502 2.472-16.124 4.518l-7.244.426s-2.55.346-2.81 5.716c-.259 5.37-1.618 5.878-1.618 5.878s-2.983 5.29-2.724 8.015c.26 2.726-2.303 4.091-2.303 4.091l10.653 27.706s.34 11.42-1.618 15.598c-1.958 4.178-5.626 22.68-5.626 22.68s1.532-.345 1.451.68c-.08 1.026-1.877 12.188-1.877 12.188s-.513 4.437-1.365 5.97c-.852 1.532-.933 9.548-.933 9.548l-1.365 5.797s3.237 7.243 8.177 6.223c4.941-1.02 13.901-20.376 13.901-20.376l5.707-20.882 4.428-20.63 1.279-13.984 2.044-30.944 2.983-20.456s3.334-11 2.142-12.447z"/>
        <path fill="#000" fill-rule="nonzero" d="M431.17 224.177l-4.94 3.411s-7.556.242-12.957-1.09l-2.747-1.22-.576-.243.576.179c2.85.847 5.079.83 6.824.242 6.99-2.357 6.219-13.91 5.948-16.52 0-.266-.046-.433-.057-.496a.162.162 0 0 1 0-.035l.04.07a3.815 3.815 0 0 0 .633.783l2.47 4.938v.208l4.786 9.773z" opacity=".1"/>
        <path fill="#65617D" fill-rule="nonzero" d="M448.278 190.848l-2.39.68-.34 4.857s-2.81-.426-3.575 2.881c-.766 3.308-2.13 4.864-2.13 4.864s-4.688 3.918-4.942 7.243l-2.879 1.792s-6.731-1.539-8.263-4.264c0 0 3.07 21.995-13.29 16.624 0 0 18.317 8.01 19.17 9.122.852 1.112 6.472 4.345 11.585 1.619 5.114-2.726 6.22-6.915 6.22-6.915s4.94-6.915 5.107-7.929c.167-1.014 4.031-2.218 4.031-2.218l7.325-17.73-15.629-10.626z"/>
        <path fill="#000" fill-rule="nonzero" d="M508.097 166.72l2.47-11.253s1.106 3.665 2.218 4.518l3.662 2.817s3.662 1.7 4.94 1.7c1.28 0 8.178 1.792 9.03 2.732.852.939 4.261.253 4.261.253s2.81.94 5.28 1.533c2.471.593 3.663 4.69 3.15 6.338a4.918 4.918 0 0 0 1.193 4.61c1.025 1.026 1.537 4.35 1.537 4.35a4.988 4.988 0 0 1 2.88 2.473c.852 1.873.575 5.964.575 5.964l-12.668 17.903s.167 6.915-.34 8.442c-.507 1.527 1.785 27.619 1.785 27.619l2.643 44.836s-3.495 2.985-4.261 3.325c-.766.34-1.532-15.852-1.532-16.451 0-.6-19.677-29.497-19.677-29.497s-2.643-4.259-2.643-5.187c0-.927-2.47-9.548-2.47-9.548l-3.749-16.624 1.716-50.852z" opacity=".1"/>
        <path fill="#65617D" fill-rule="nonzero" d="M550.382 191.77v.98l-12.67 17.862s.174 6.915-.333 8.436c-.3.893.351 10.067.956 17.604.426 5.434.83 10.015.83 10.015l1.122 19.016 1.514 25.815s-3.49 2.985-4.255 3.325c-.766.34-1.532-15.853-1.532-16.452 0-.6-19.682-29.491-19.682-29.491s-2.643-4.27-2.643-5.186c0-.917-2.47-9.549-2.47-9.549l-3.744-16.624 1.699-50.806 1.394-11.248s2.13 3.67 3.236 4.518l3.662 2.812s3.663 1.728 4.941 1.728 8.183 1.787 9.035 2.726c.852.94 4.255.253 4.255.253s2.81.94 5.281 1.533c2.47.594 3.668 4.69 3.156 6.339a4.906 4.906 0 0 0 1.192 4.61c1.019 1.02 1.531 4.344 1.531 4.344a5.01 5.01 0 0 1 2.88 2.478c.61 1.24.668 3.607.645 4.962z"/>
        <path fill="#000" fill-rule="nonzero" d="M446.251 418.885c.42 0 18.312.68 17.973 3.578-.34 2.899-17.973-3.578-17.973-3.578zM450.254 423.743s12.012 1.959 8.856 3.75c-3.156 1.793-8.856-3.75-8.856-3.75zM494.922 417.006s19.936 1.73 16.953 3.925c-2.983 2.195-10.055 2.552-10.365 2.639-.311.086-6.588-6.564-6.588-6.564zM492.51 425.788s11.073 1.873 11.412 4.034c.34 2.16-11.413-4.034-11.413-4.034zM498.642 374.47s10.135 2.385 10.734 4.033l-10.734-4.034zM459.536 381.799s-5.28 1.533-.167 4.61c5.114 3.077.167-4.61.167-4.61zM482.967 299.876c.576 0 9.882-3.065 13.118-1.729a21.576 21.576 0 0 0 7.238 1.378l-20.356.351zM484.16 309.591l-.093.847-7.918 20.814s-1.278 6.304-2.384 9.882a64.679 64.679 0 0 0-1.664 7.405l7.031-43.632 5.027 4.684z" opacity=".1"/>
        <path fill="#3F3D56" fill-rule="nonzero" d="M496.528 272.862l-3.3.058h-.103l-1.935-8.592 2.88-.155z"/>
        <path fill="#FBBEBE" fill-rule="nonzero" d="M536.722 262.456l-2.124 1.728-7.078 5.838s-19.17 10.233-24.45.512c-4.653-8.562 17.08-14.676 22.314-16.007.708-.179 1.111-.271 1.111-.271l10.227 8.2z"/>
        <path fill="#000" fill-rule="nonzero" d="M454.855 178.655s3.748 1.728 4.606 4.09c.858 2.363-4.606-4.09-4.606-4.09zM443.269 204.228s-5.454 6.65-3.237 9.22c2.217 2.57 3.237-9.22 3.237-9.22zM540.725 182.406s-5.114.513-5.28 4.944l5.28-4.944zM493.361 252.308c.507-.513 12.266-17.903 14.972-16.365l-14.972 16.365zM515.341 139.27a20.179 20.179 0 0 1-2.4 9.576l-.15-.029c-1.285-.27-1.953-1.769-2.937-2.702a3.989 3.989 0 0 0-4.607-.646 4.686 4.686 0 0 0-2.258 4.374c-.65-2.731-.443-5.63-1.076-8.367-.634-2.737-2.54-5.503-5.154-5.549-1.152 0-2.436.41-3.254-.432-.49-.507-.576-1.308-.956-1.93-1.865-3.02-7.549-1.493-9.87.057-2.32 1.55-5.01 4.034-7.894 5.359.079-11.205 9.221-20.225 20.419-20.145 11.198.08 20.211 9.228 20.132 20.433h.005z" opacity=".1"/>
        <path fill="#7C5C5C" fill-rule="nonzero" d="M492.555 133.057c.369.617.467 1.418.956 1.925.812.847 2.13.41 3.254.432 2.614.046 4.52 2.812 5.153 5.55.634 2.736.427 5.635 1.077 8.366a4.674 4.674 0 0 1 2.263-4.373 3.989 3.989 0 0 1 4.607.645c.985.933 1.653 2.432 2.937 2.702 1.284.271 2.522-.962 2.988-2.304.467-1.343.432-2.841.738-4.247.575-2.657 2.303-4.84 3.27-7.37a13.36 13.36 0 0 0-.086-9.52c-.64-1.602-1.59-3.042-2.24-4.638-.979-2.432-1.232-5.186-2.43-7.491-2.004-3.878-6.726-5.814-10.613-4.357-1.848.692-3.455 2.04-5.338 2.645-2.516.813-5.211.202-7.814-.161-2.603-.363-5.488-.398-7.584 1.314-2.413 1.976-3.07 5.687-5.338 7.854-.95.91-2.13 1.492-3.133 2.305-1.002.812-1.871 2.091-1.727 3.457.15 1.763 1.877 3.365 1.238 5.002-.23.474-.551.9-.945 1.25a17.825 17.825 0 0 0-4.123 7.019c4.555 1.429 9.49-3.602 13.06-5.982 2.287-1.515 7.964-3.048 9.83-.023z"/>
        <path fill="#000" fill-rule="nonzero" d="M536.722 262.456l-2.124 1.728c-1.872-3.111-9.548-9.335-9.548-9.335l.334-.322c.708-.179 1.111-.271 1.111-.271l10.227 8.2z" opacity=".1"/>
        <path fill="#E7EFFD" fill-rule="nonzero" d="M538.767 259.298s-.766 1.902-1.55 3.538c-.782 1.637-1.646 3.135-1.687 1.919-.086-2.386-9.967-10.401-9.967-10.401l1.341-1.302 1.55-1.51 10.313 7.756z"/>
        <path fill="#000" fill-rule="nonzero" d="M539.106 246.679l1.123 19.015c-2.649-4.12-9.916-14.676-14.586-14.336l11.316-13.03c.47-.524.906-1.08 1.301-1.664a850.41 850.41 0 0 0 .846 10.015z" opacity=".1"/>
        <path fill="#000" fill-rule="nonzero" d="M538.767 259.298s-.766 1.902-1.55 3.538c-2.97-4.074-7.053-8.885-10.313-9.796l1.55-1.51 10.313 7.768z" opacity=".1"/>
        <path fill="#65617D" fill-rule="nonzero" d="M547.283 190.335l3.07 2.385s5.107.087 5.62 4.35c.512 4.265 5.183 6.224 5.183 6.224s3.49 3.492 3.49 5.111c0 1.62 2.642 4.518 2.642 4.777 0 .26 2.557 5.457 2.212 6.39-.346.934 2.73 5.031 1.79 6.564a37.83 37.83 0 0 0-2.044 4.264s-4.002 7.675-6.046 9.122c-2.044 1.446-11.42 13.64-11.42 13.64s-10.048 11.593-10.048 15.171c0 0-9.789-16.365-15.594-15.938l11.333-13.046s1.958-2.126 2.044-3.406c.087-1.279 5.454-7.162 8.01-7.416 0 0 .42-3.497-.685-3.584-1.106-.086-2.044-2.812-2.044-2.812s-7.486-8.862-7.584-14.492c-.098-5.63 10.071-17.304 10.071-17.304z"/>
        <path fill="#000" fill-rule="nonzero" d="M551.798 198.43s-7.152 5.29-5.62 6.99c1.532 1.7 5.62-6.99 5.62-6.99zM552.138 220.258s13.29-4.264 14.655 0h-14.655zM469.85 446.757s-7.158 4.69-10.734 4.034c-3.576-.657-7.244 1.198-7.244 1.198a21.581 21.581 0 0 1-9.035 5.884c-5.759 1.959-13.878 1.187-18.48-.346-2.176-.726-2.354-1.66-1.306-2.818 5.004.997 16.18 2.985 19.193 1.539 3.915-1.879 9.541-5.97 9.541-5.97s7.33-1.02 8.35-1.02c.726 0 6.386-2.34 9.582-3.676l.133 1.175zM513.193 456.346l-.074.472s-1.728 3.752-11.155 5.117c-9.426 1.366-9.455-3.158-9.455-3.158s.035-.484.092-1.215c2.995 1.135 9.525 2.402 20.592-1.216zM458.39 197.41s0 19.437-1.664 21.356c-1.664 1.919 1.664-21.355 1.664-21.355zM535.185 203.674l2.47 6.95s.985-6.823-2.47-6.95z" opacity=".1"/>
        <g fill="#000" fill-rule="nonzero" opacity=".1">
            <path d="M474.952 129.162c.621-1.602-1.014-3.17-1.227-4.886a3.206 3.206 0 0 0-.27 1.544c.109 1.29 1.059 2.495 1.312 3.694.072-.112.133-.23.185-.352zM503.226 147.52c-.61-2.684-.432-5.531-1.054-8.222-.622-2.691-2.54-5.503-5.148-5.55-1.152 0-2.442.416-3.254-.426-.495-.507-.576-1.313-.961-1.93-1.866-3.025-7.544-1.492-9.87.058-3.456 2.305-8.27 7.162-12.738 6.067a18.285 18.285 0 0 0-.576 1.574c4.555 1.429 9.49-3.602 13.06-5.982 2.304-1.544 8.004-3.077 9.87-.052.369.617.467 1.418.956 1.925.812.847 2.13.41 3.254.432 2.614.046 4.52 2.812 5.153 5.55.634 2.736.427 5.635 1.077 8.366a4.705 4.705 0 0 1 .23-1.81zM516.032 144.328c-.46 1.349-1.675 2.593-2.988 2.305-1.313-.288-1.952-1.769-2.931-2.708a4.029 4.029 0 0 0-4.607-.64 4.645 4.645 0 0 0-2.263 4.126 4.47 4.47 0 0 1 2.01-2.466 3.989 3.989 0 0 1 4.606.645c.985.934 1.653 2.432 2.937 2.703 1.284.27 2.522-.962 2.989-2.305.242-.797.399-1.618.466-2.449a6.4 6.4 0 0 1-.219.79zM520.04 132.712c-.956 2.53-2.695 4.707-3.27 7.37a16.974 16.974 0 0 0-.248 1.636c.576-2.65 2.303-4.823 3.265-7.347.424-1.135.69-2.324.789-3.532-.131.637-.31 1.263-.536 1.873z"/>
        </g>
        <ellipse cx="396.93" cy="194.23" fill="#E6E8EC" fill-rule="nonzero" rx="1" ry="1"/>
        <ellipse cx="470.489" cy="457.112" fill="#64B5F6" fill-rule="nonzero" opacity=".1" rx="49.718" ry="5.077"/>
        <path fill="#DCDFED" fill-rule="nonzero" d="M287.664 124.114l-150.59 97.764 98.274 177.363a6.859 6.859 0 0 0 4.376 3.342l89.043 21.736a6.863 6.863 0 0 0 7.797-3.694l44.168-91.822 48.405-64.751-114.87-135.99c-6.612-7.826-18.006-9.516-26.603-3.948z"/>
        <path fill="#000" fill-rule="nonzero" d="M430.669 264.818l-.426.576-28.355 37.934-.512.685-19.113 25.568-37.775 78.546-1.06 2.195-5.332 11.081a6.863 6.863 0 0 1-7.808 3.694l-89.043-21.747a6.847 6.847 0 0 1-4.377-3.342l-8.563-15.426-1.537-2.777-61.806-111.593-.53-.951-25.832-46.617 3.121-2.028 23.662-15.357.547-.357 49.828-32.35 3.144-2.04 70.282-45.631c8.598-5.58 20-3.891 26.615 3.941l52.402 62.06 2.304 2.766 38.034 45.027.208.247 19.123 22.635 2.407 2.852.392.41z" opacity=".1"/>
        <path fill="#000" fill-rule="nonzero" d="M407.272 238.156l-4.64 32.269-1.4 9.738-.8 20.745-.064 1.619-4.163 108.389a6.876 6.876 0 0 1-2.674 5.173 6.866 6.866 0 0 1-5.682 1.263l-44.881-10.026-.484-.11-115.106-25.705-2.113-.473-63.28-14.14 1.451-97.453.047-3.255.437-29.498.484-32.557 49.828-32.35 3.144-2.039c46.217 4.742 107.683 13.864 149.322 20.37l2.304 2.766 38.006 45.026.264.248z" opacity=".1"/>
        <path fill="#64B5F6" fill-rule="nonzero" d="M412.53 199.894l-5.465 38.032-5.01 34.827-1.399 9.715-.8 20.744-4.227 110.009a6.876 6.876 0 0 1-2.674 5.173 6.866 6.866 0 0 1-5.682 1.263l-45.365-10.136-115.106-25.705-65.393-14.614 1.498-100.707.437-29.498.513-34.504.524-35.49c10.814-.513 28.608.645 49.85 2.783 47.566 4.777 112.406 14.44 154.8 21.096 25.959 4.074 43.499 7.012 43.499 7.012z"/>
        <path fill="#000" fill-rule="nonzero" d="M426.396 260.79l-24.34 11.946L277.827 333.7l-114.484-94.68-23.143-19.172-3.121 2.029 25.832 46.617-1.497 100.707 65.393 14.614 8.546 15.425a6.847 6.847 0 0 0 4.376 3.342l89.043 21.736a6.863 6.863 0 0 0 7.791-3.694l5.333-11.08 45.365 10.135a6.866 6.866 0 0 0 5.682-1.263 6.876 6.876 0 0 0 2.673-5.173l4.227-110.008 28.867-38.608.08-.974-2.395-2.864z" opacity=".1"/>
        <path fill="#DCDFED" fill-rule="nonzero" d="M137.074 221.878l-10.267 175.94a6.868 6.868 0 0 0 5.361 7.105l272.674 60.59a6.86 6.86 0 0 0 5.55-1.186 6.87 6.87 0 0 0 2.76-4.962l15.98-195.313-151.304 74.259-140.754-116.433z"/>
        <path fill="#000" fill-rule="nonzero" d="M128.684 401.846l141.658-87.455a10.395 10.395 0 0 1 13.245 2.075l126.79 147.97c.46.53.684.15 0 0l-281.693-62.59c-.806-.179-.702.42 0 0z" opacity=".1"/>
        <path fill="#E3E5F1" fill-rule="nonzero" d="M129.698 401.702l140.195-84.746a10.988 10.988 0 0 1 13.982 2.2L409.518 463.75a1.516 1.516 0 0 1-1.468 2.472l-277.897-61.749a1.51 1.51 0 0 1-.455-2.771z"/>
    </g>
</svg>
